<?xml version="1.0" encoding="utf-8"?>
<!-- Generator: Adobe Illustrator 17.0.0, SVG Export Plug-In . SVG Version: 6.00 Build 0)  -->
<!DOCTYPE svg PUBLIC "-//W3C//DTD SVG 1.1//EN" "http://www.w3.org/Graphics/SVG/1.1/DTD/svg11.dtd">
<svg version="1.1" xmlns="http://www.w3.org/2000/svg" xmlns:xlink="http://www.w3.org/1999/xlink" x="0px" y="0px" width="42.52px"
	 height="42.52px" viewBox="0 0 42.52 42.52" enable-background="new 0 0 42.52 42.52" xml:space="preserve">
<g id="图层_3">
	<path fill="#FF6B38" d="M21.093,1C10.03,1,1.062,9.968,1.062,21.031s8.968,20.031,20.031,20.031s20.031-8.968,20.031-20.031
		S32.156,1,21.093,1z M2.937,21.062"/>
</g>
<g id="图层_2">
	<g>
		<g>
			<defs>
				<circle id="SVGID_1_" cx="25.333" cy="22.207" r="2"/>
			</defs>
			<use xlink:href="#SVGID_1_"  overflow="visible" fill-rule="evenodd" clip-rule="evenodd" fill="#FFFFFF"/>
			<clipPath id="SVGID_2_">
				<use xlink:href="#SVGID_1_"  overflow="visible"/>
			</clipPath>
		</g>
		<g>
			<defs>
				<path id="SVGID_3_" d="M13.333,27.207h-2v-6h2V27.207z M32.333,16.207h-1.434l-2.709-4.515c-0.144-0.239-0.38-0.408-0.653-0.464
					c-0.272-0.057-0.558,0.003-0.785,0.165l-6.739,4.814h3.441l3.579-2.556l1.534,2.556h-4.234v2h7v8h-12v-2h-2v3
					c0,0.552,0.448,1,1,1h6.882l-0.224,0.448c-0.17,0.341-0.512,0.552-0.893,0.552h-6.351l-2.414-2.414v-5.172l2.414-2.414h3.586v1
					c0,0.552-0.448,1-1,1h-2v2h2c1.654,0,3-1.346,3-3v-2c0-0.552-0.447-1-1-1h-5c-0.265,0-0.52,0.105-0.707,0.294l-1.833,1.833
					c-0.14-0.074-0.291-0.127-0.46-0.127h-4c-0.552,0-1,0.448-1,1v8c0,0.552,0.448,1,1,1h4c0.169,0,0.32-0.052,0.46-0.126
					l1.833,1.834c0.187,0.187,0.442,0.292,0.707,0.292h6.765c1.144,0,2.172-0.635,2.683-1.659l0.67-1.341h4.882c0.553,0,1-0.448,1-1
					v-10C33.333,16.655,32.886,16.207,32.333,16.207z"/>
			</defs>
			<use xlink:href="#SVGID_3_"  overflow="visible" fill-rule="evenodd" clip-rule="evenodd" fill="#FFFFFF"/>
			<clipPath id="SVGID_4_">
				<use xlink:href="#SVGID_3_"  overflow="visible"/>
			</clipPath>
		</g>
	</g>
</g>
</svg>
