<?xml version="1.0" encoding="utf-8"?>
<!-- Generator: Adobe Illustrator 17.0.0, SVG Export Plug-In . SVG Version: 6.00 Build 0)  -->
<!DOCTYPE svg PUBLIC "-//W3C//DTD SVG 1.1//EN" "http://www.w3.org/Graphics/SVG/1.1/DTD/svg11.dtd">
<svg version="1.1" id="图层_2" xmlns="http://www.w3.org/2000/svg" xmlns:xlink="http://www.w3.org/1999/xlink" x="0px" y="0px"
	 width="42.52px" height="42.52px" viewBox="0 0 42.52 42.52" enable-background="new 0 0 42.52 42.52" xml:space="preserve">
<g>
	<g>
		<defs>
			<circle id="SVGID_1_" cx="21.375" cy="21.415" r="20"/>
		</defs>
		<clipPath id="SVGID_2_">
			<use xlink:href="#SVGID_1_"  overflow="visible"/>
		</clipPath>
		<g clip-path="url(#SVGID_2_)">
			<g>
				<circle fill="#FFFFFF" cx="21.51" cy="21.135" r="19.25"/>
				<path fill="#999999" d="M21.375,43.415c-12.131,0-22-9.869-22-22s9.869-22,22-22s22,9.869,22,22S33.506,43.415,21.375,43.415z
					 M21.375,3.415c-9.925,0-18,8.075-18,18c0,9.925,8.075,18,18,18c9.925,0,18-8.075,18-18C39.375,11.49,31.3,3.415,21.375,3.415z"
					/>
			</g>
		</g>
	</g>
	<g>
		<defs>
			<path id="SVGID_3_" d="M17.375,13.915c0-0.828-0.672-1.5-1.5-1.5c-0.828,0-1.5,0.672-1.5,1.5v0.5h3V13.915z"/>
		</defs>
		<use xlink:href="#SVGID_3_"  overflow="visible" fill-rule="evenodd" clip-rule="evenodd" fill="#979797"/>
		<clipPath id="SVGID_4_">
			<use xlink:href="#SVGID_3_"  overflow="visible"/>
		</clipPath>
	</g>
	<g>
		<defs>
			<polygon id="SVGID_5_" points="17.375,24.415 17.375,15.415 14.375,15.415 14.375,24.415 15.875,27.415 			"/>
		</defs>
		<use xlink:href="#SVGID_5_"  overflow="visible" fill-rule="evenodd" clip-rule="evenodd" fill="#979797"/>
		<clipPath id="SVGID_6_">
			<use xlink:href="#SVGID_5_"  overflow="visible"/>
		</clipPath>
	</g>
	<g>
		<defs>
			<path id="SVGID_7_" d="M26.375,28.415v-4h4.001v4H26.375z M26.375,18.415h4v4h-4V18.415z M30.375,16.415h-11v2h5v10h-12v-12
				c-1.103,0-2,0.898-2,2v10c0,1.103,0.897,2,2,2h18c1.103,0,2-0.897,2-2v-10C32.375,17.313,31.478,16.415,30.375,16.415z"/>
		</defs>
		<use xlink:href="#SVGID_7_"  overflow="visible" fill-rule="evenodd" clip-rule="evenodd" fill="#979797"/>
		<clipPath id="SVGID_8_">
			<use xlink:href="#SVGID_7_"  overflow="visible"/>
		</clipPath>
	</g>
</g>
</svg>
