<?xml version="1.0" encoding="utf-8"?>
<!-- Generator: Adobe Illustrator 17.0.0, SVG Export Plug-In . SVG Version: 6.00 Build 0)  -->
<!DOCTYPE svg PUBLIC "-//W3C//DTD SVG 1.1//EN" "http://www.w3.org/Graphics/SVG/1.1/DTD/svg11.dtd">
<svg version="1.1" id="图层_2" xmlns="http://www.w3.org/2000/svg" xmlns:xlink="http://www.w3.org/1999/xlink" x="0px" y="0px"
	 width="42.52px" height="42.52px" viewBox="0 0 42.52 42.52" enable-background="new 0 0 42.52 42.52" xml:space="preserve">
<g>
	<circle fill-rule="evenodd" clip-rule="evenodd" fill="#FF6B38" cx="21.25" cy="21.123" r="20"/>
	<g>
		<defs>
			<path id="SVGID_1_" d="M17.375,13.915c0-0.828-0.672-1.5-1.5-1.5c-0.828,0-1.5,0.672-1.5,1.5v0.5h3V13.915z"/>
		</defs>
		<defs>
			<polygon id="SVGID_2_" points="17.375,24.415 17.375,15.415 14.375,15.415 14.375,24.415 15.875,27.415 			"/>
		</defs>
		<use xlink:href="#SVGID_1_"  overflow="visible" fill-rule="evenodd" clip-rule="evenodd" fill="#FFFFFF"/>
		<use xlink:href="#SVGID_2_"  overflow="visible" fill-rule="evenodd" clip-rule="evenodd" fill="#FFFFFF"/>
		<clipPath id="SVGID_3_">
			<use xlink:href="#SVGID_1_"  overflow="visible"/>
		</clipPath>
		<clipPath id="SVGID_4_" clip-path="url(#SVGID_3_)">
			<use xlink:href="#SVGID_2_"  overflow="visible"/>
		</clipPath>
	</g>
	<g>
		<defs>
			<path id="SVGID_5_" d="M26.375,28.415v-4h4.001v4H26.375z M26.375,18.415h4v4h-4V18.415z M30.375,16.415h-11v2h5v10h-12v-12
				c-1.103,0-2,0.898-2,2v10c0,1.103,0.897,2,2,2h18c1.103,0,2-0.897,2-2v-10C32.375,17.313,31.478,16.415,30.375,16.415z"/>
		</defs>
		<use xlink:href="#SVGID_5_"  overflow="visible" fill-rule="evenodd" clip-rule="evenodd" fill="#FFFFFF"/>
		<clipPath id="SVGID_6_">
			<use xlink:href="#SVGID_5_"  overflow="visible"/>
		</clipPath>
	</g>
</g>
</svg>
