<?xml version="1.0" encoding="utf-8"?>
<!-- Generator: Adobe Illustrator 17.0.0, SVG Export Plug-In . SVG Version: 6.00 Build 0)  -->
<!DOCTYPE svg PUBLIC "-//W3C//DTD SVG 1.1//EN" "http://www.w3.org/Graphics/SVG/1.1/DTD/svg11.dtd">
<svg version="1.1" id="图层_3" xmlns="http://www.w3.org/2000/svg" xmlns:xlink="http://www.w3.org/1999/xlink" x="0px" y="0px"
	 width="42.52px" height="42.52px" viewBox="0 0 42.52 42.52" enable-background="new 0 0 42.52 42.52" xml:space="preserve">
<g>
	<g>
		<circle id="SVGID_1_" fill="#FF6B38" cx="21.167" cy="21.623" r="20"/>
	</g>
</g>
<g>
	<g>
		<path id="SVGID_3_" fill="#FFFFFF" d="M13.167,30.873v-7.821l7.47,4.669c0.162,0.101,0.346,0.152,0.53,0.152
			s0.368-0.051,0.53-0.152l7.47-4.669l0.001,7.821C29.168,30.873,13.167,30.873,13.167,30.873z M27.28,21.873l-6.113,3.821
			l-6.113-3.821C15.054,21.873,27.28,21.873,27.28,21.873z M29.167,19.873h-16c-1.103,0-2,0.898-2,2v9c0,1.103,0.897,2,2,2h16
			c1.103,0,2-0.897,2-2v-9C31.167,20.771,30.27,19.873,29.167,19.873z"/>
	</g>
</g>
<g>
	<g>
		<polygon id="SVGID_5_" fill="#FFFFFF" points="19.874,13.702 19.874,18.287 21.874,18.287 21.874,13.702 24.167,15.994 
			25.581,14.58 20.874,9.873 16.167,14.58 17.581,15.994 		"/>
	</g>
</g>
</svg>
