<?xml version="1.0" encoding="utf-8"?>
<!-- Generator: Adobe Illustrator 17.0.0, SVG Export Plug-In . SVG Version: 6.00 Build 0)  -->
<!DOCTYPE svg PUBLIC "-//W3C//DTD SVG 1.1//EN" "http://www.w3.org/Graphics/SVG/1.1/DTD/svg11.dtd">
<svg version="1.1" xmlns="http://www.w3.org/2000/svg" xmlns:xlink="http://www.w3.org/1999/xlink" x="0px" y="0px" width="42.52px"
	 height="42.52px" viewBox="0 0 42.52 42.52" enable-background="new 0 0 42.52 42.52" xml:space="preserve">
<g id="图层_3">
	<circle fill="#FFFFFF" cx="21.198" cy="20.823" r="19.062"/>
</g>
<g id="图层_2">
	<g>
		<g>
			<g>
				<path id="SVGID_3_" fill="#FF6B38" d="M13,29.998v-7.821l7.47,4.669c0.162,0.101,0.346,0.152,0.53,0.152s0.368-0.051,0.53-0.152
					L29,22.177l0.001,7.821C29.001,29.998,13,29.998,13,29.998z M27.113,20.998L21,24.819l-6.113-3.821
					C14.887,20.998,27.113,20.998,27.113,20.998z M29,18.998H13c-1.103,0-2,0.898-2,2v9c0,1.103,0.897,2,2,2h16c1.103,0,2-0.897,2-2
					v-9C31,19.896,30.103,18.998,29,18.998z"/>
			</g>
		</g>
		<g>
			<g>
				<polygon id="SVGID_5_" fill="#FF6B38" points="19.707,12.827 19.707,17.412 21.707,17.412 21.707,12.827 24,15.119 
					25.414,13.705 20.707,8.998 16,13.705 17.414,15.119 				"/>
			</g>
		</g>
	</g>
	<path fill="#FF6B38" d="M21.041,1.135C9.978,1.135,1.01,10.103,1.01,21.166s8.968,20.031,20.031,20.031s20.031-8.968,20.031-20.031
		S32.104,1.135,21.041,1.135z M20.948,39.26c-9.976,0-18.062-8.087-18.062-18.062S10.972,3.135,20.948,3.135
		S39.01,11.222,39.01,21.198S30.923,39.26,20.948,39.26z"/>
</g>
</svg>
