<?xml version="1.0" encoding="utf-8"?>
<!-- Generator: Adobe Illustrator 17.0.0, SVG Export Plug-In . SVG Version: 6.00 Build 0)  -->
<!DOCTYPE svg PUBLIC "-//W3C//DTD SVG 1.1//EN" "http://www.w3.org/Graphics/SVG/1.1/DTD/svg11.dtd">
<svg version="1.1" id="图层_1" xmlns="http://www.w3.org/2000/svg" xmlns:xlink="http://www.w3.org/1999/xlink" x="0px" y="0px"
	 width="42.52px" height="42.52px" viewBox="0 0 42.52 42.52" enable-background="new 0 0 42.52 42.52" xml:space="preserve">
<g id="图层_1_1_">
	<g>
		<circle fill="#FFFFFF" cx="21.427" cy="20.927" r="19.333"/>
		<g>
			<g>
				<rect id="SVGID_3_" x="16.447" y="21.873" fill="#989899" width="10" height="2"/>
			</g>
		</g>
		<g>
			<g>
				<rect id="SVGID_5_" x="16.447" y="17.873" fill="#989899" width="8" height="2"/>
			</g>
		</g>
		<g>
			<g>
				<rect id="SVGID_7_" x="16.447" y="25.873" fill="#989899" width="10" height="2"/>
			</g>
		</g>
		<g>
			<g>
				<path id="SVGID_9_" fill="#989899" d="M14.447,29.873v-18h2v1c0,0.553,0.448,1,1,1s1-0.447,1-1v-1h2v1c0,0.553,0.448,1,1,1
					s1-0.447,1-1v-1h2v1c0,0.553,0.448,1,1,1s1-0.447,1-1v-1h2l0.001,18H14.447z M28.447,9.873h-2v-1c0-0.552-0.448-1-1-1
					s-1,0.448-1,1v1h-2v-1c0-0.552-0.448-1-1-1s-1,0.448-1,1v1h-2v-1c0-0.552-0.448-1-1-1s-1,0.448-1,1v1h-2c-1.103,0-2,0.896-2,2
					v18c0,1.103,0.897,2,2,2h14c1.103,0,2-0.897,2-2v-18C30.447,10.769,29.55,9.873,28.447,9.873z"/>
			</g>
		</g>
	</g>
</g>
<path fill="#989899" d="M21.51,1C10.447,1,1.479,9.968,1.479,21.031s8.968,20.031,20.031,20.031s20.031-8.968,20.031-20.031
	S32.573,1,21.51,1z M21.416,39.125c-9.976,0-18.062-8.087-18.062-18.062S11.441,3,21.416,3s18.062,8.087,18.062,18.062
	S31.392,39.125,21.416,39.125z"/>
</svg>
