<?xml version="1.0" encoding="utf-8"?>
<!-- Generator: Adobe Illustrator 17.0.0, SVG Export Plug-In . SVG Version: 6.00 Build 0)  -->
<!DOCTYPE svg PUBLIC "-//W3C//DTD SVG 1.1//EN" "http://www.w3.org/Graphics/SVG/1.1/DTD/svg11.dtd">
<svg version="1.1" id="图层_3" xmlns="http://www.w3.org/2000/svg" xmlns:xlink="http://www.w3.org/1999/xlink" x="0px" y="0px"
	 width="42.52px" height="42.52px" viewBox="0 0 42.52 42.52" enable-background="new 0 0 42.52 42.52" xml:space="preserve">
<g>
	<g>
		<g>
			<circle id="SVGID_1_" fill="#FF6B38" cx="21.292" cy="20.873" r="20"/>
		</g>
	</g>
	<g>
		<g>
			<rect id="SVGID_5_" x="16.292" y="21.873" fill="#FFFFFF" width="10" height="2"/>
		</g>
	</g>
	<g>
		<g>
			<rect id="SVGID_7_" x="16.292" y="17.873" fill="#FFFFFF" width="8" height="2"/>
		</g>
	</g>
	<g>
		<g>
			<rect id="SVGID_9_" x="16.292" y="25.873" fill="#FFFFFF" width="10" height="2"/>
		</g>
	</g>
	<g>
		<g>
			<path id="SVGID_11_" fill="#FFFFFF" d="M14.292,29.873v-18h2v1c0,0.553,0.448,1,1,1s1-0.447,1-1v-1h2v1c0,0.553,0.448,1,1,1
				s1-0.447,1-1v-1h2v1c0,0.553,0.448,1,1,1s1-0.447,1-1v-1h2l0.001,18H14.292z M28.292,9.873h-2v-1c0-0.552-0.448-1-1-1
				s-1,0.448-1,1v1h-2v-1c0-0.552-0.448-1-1-1s-1,0.448-1,1v1h-2v-1c0-0.552-0.448-1-1-1s-1,0.448-1,1v1h-2c-1.103,0-2,0.896-2,2v18
				c0,1.103,0.897,2,2,2h14c1.103,0,2-0.897,2-2v-18C30.292,10.769,29.395,9.873,28.292,9.873z"/>
		</g>
	</g>
</g>
</svg>
