<?xml version="1.0" encoding="utf-8"?>
<!-- Generator: Adobe Illustrator 17.0.0, SVG Export Plug-In . SVG Version: 6.00 Build 0)  -->
<!DOCTYPE svg PUBLIC "-//W3C//DTD SVG 1.1//EN" "http://www.w3.org/Graphics/SVG/1.1/DTD/svg11.dtd">
<svg version="1.1" id="图层_1" xmlns="http://www.w3.org/2000/svg" xmlns:xlink="http://www.w3.org/1999/xlink" x="0px" y="0px"
	 width="42.52px" height="42.52px" viewBox="0 0 42.52 42.52" enable-background="new 0 0 42.52 42.52" xml:space="preserve">
<g id="图层_2">
	<g>
		<circle fill="#FFFFFF" cx="21.51" cy="20.843" r="19.083"/>
		<g>
			<g>
				<rect id="SVGID_15_" x="16.375" y="22.04" fill="#FF6B38" width="10" height="2"/>
			</g>
		</g>
		<g>
			<g>
				<rect id="SVGID_17_" x="16.375" y="18.04" fill="#FF6B38" width="8" height="2"/>
			</g>
		</g>
		<g>
			<g>
				<rect id="SVGID_19_" x="16.375" y="26.04" fill="#FF6B38" width="10" height="2"/>
			</g>
		</g>
		<g>
			<g>
				<path id="SVGID_21_" fill="#FF6B38" d="M14.375,30.04v-18h2v1c0,0.553,0.448,1,1,1s1-0.447,1-1v-1h2v1c0,0.553,0.448,1,1,1
					s1-0.447,1-1v-1h2v1c0,0.553,0.448,1,1,1s1-0.447,1-1v-1h2l0.001,18H14.375z M28.375,10.04h-2v-1c0-0.552-0.448-1-1-1
					s-1,0.448-1,1v1h-2v-1c0-0.552-0.448-1-1-1s-1,0.448-1,1v1h-2v-1c0-0.552-0.448-1-1-1s-1,0.448-1,1v1h-2c-1.103,0-2,0.896-2,2
					v18c0,1.103,0.897,2,2,2h14c1.103,0,2-0.897,2-2v-18C30.375,10.936,29.478,10.04,28.375,10.04z"/>
			</g>
		</g>
	</g>
</g>
<path fill="#FF6B38" d="M21.354,1.01c-11.063,0-20.031,8.968-20.031,20.031s8.968,20.031,20.031,20.031s20.031-8.968,20.031-20.031
	S32.417,1.01,21.354,1.01z M21.26,39.135c-9.976,0-18.062-8.087-18.062-18.062S11.284,3.01,21.26,3.01s18.062,8.087,18.062,18.062
	S31.236,39.135,21.26,39.135z"/>
</svg>
